# File created by Blade
# Date/Time:  Thu Sep 25 18:39:44 2014
# Frame Rate: 120.000 fps
#------------------------------------------------------
:FULLY-SPECIFIED
:DEGREES
1386
root -0.712895 33.153208 -3.868884 5.551711 1.974770 -1.405552
Spine -6.520492 2.997504 4.689460
Head -32.939082 -1.319980 2.361411
LeftShoulder 13.223605 -24.315896 37.975947
LeftArm 86.067900 13.902920 -82.272113
LeftForeArm -20.505380 -0.000000 64.050044
LeftHand -25.056433 0.000000 13.208639
LeftHandThumb1 -26.253704 0.000000 33.147579
RightShoulder 8.011862 35.270574 -24.457836
RightArm 33.986805 -20.591992 98.146108
RightForeArm 18.447940 -0.000000 77.238057
RightHand 2.601381 -0.000000 4.490321
RightHandThumb1 -24.326973 -0.000000 -32.862282
LeftUpLeg -1.788219 7.633862 1.629105
LeftLeg -0.195583 -0.000000 0.000000
LeftFoot -8.052416 2.395101 -9.842551
LeftToeBase 10.278216 -0.000000 -0.000000
RightUpLeg -2.870042 -6.358359 0.243204
RightLeg 1.747579 -0.000000 -0.000000
RightFoot -5.507286 -0.715632 0.309694
RightToeBase -0.708458 -0.000000 0.000000
1387
root -0.719297 33.156952 -3.875585 5.610530 2.093818 -1.439608
Spine -6.364419 2.789762 4.790885
Head -33.476624 -0.975186 2.161734
LeftShoulder 13.542549 -24.921318 37.893414
LeftArm 86.353858 14.530910 -81.330159
LeftForeArm -20.022388 -0.000000 63.603041
LeftHand -25.265022 -0.000000 13.726325
LeftHandThumb1 -26.253704 0.000000 33.147579
RightShoulder 8.679499 36.261779 -24.402874
RightArm 33.883768 -20.612213 98.928194
RightForeArm 18.952194 0.000000 78.356975
RightHand 2.840614 -0.000000 5.103159
RightHandThumb1 -24.326973 -0.000000 -32.862282
LeftUpLeg -1.872769 7.577658 1.667453
LeftLeg -0.208494 -0.000000 0.000000
LeftFoot -7.999462 2.379157 -9.795042
LeftToeBase 10.305112 -0.000000 -0.000000
RightUpLeg -2.930272 -6.425717 0.303259
RightLeg 1.750850 -0.000000 -0.000000
RightFoot -5.506065 -0.796755 0.349378
RightToeBase -0.515528 -0.000000 0.000000
1388
root -0.721205 33.158391 -3.882482 5.677543 2.214268 -1.460816
Spine -6.240481 2.700769 4.834643
Head -33.874002 -0.693307 2.050041
LeftShoulder 13.953939 -25.508562 37.774290
LeftArm 86.770067 15.141465 -80.434133
LeftForeArm -19.382208 -0.000000 62.983008
LeftHand -25.571833 -0.000000 13.819067
LeftHandThumb1 -26.253704 0.000000 33.147579
RightShoulder 9.079286 36.601378 -24.427925
RightArm 34.461572 -20.742410 99.313125
RightForeArm 19.497368 0.000000 79.434625
RightHand 3.233280 -0.000000 5.691651
RightHandThumb1 -24.326973 -0.000000 -32.862282
LeftUpLeg -1.965151 7.537544 1.683234
LeftLeg -0.212226 -0.000000 0.000000
LeftFoot -7.913897 2.313920 -9.633359
LeftToeBase 10.039971 -0.000000 -0.000000
RightUpLeg -3.001898 -6.530003 0.344816
RightLeg 1.744274 -0.000000 -0.000000
RightFoot -5.446699 -0.770263 0.332035
RightToeBase -0.645378 -0.000000 0.000000
1389
root -0.724897 33.161361 -3.883907 5.723018 2.334152 -1.488189
Spine -6.100655 2.612967 4.881266
Head -34.317222 -0.510909 2.057758
LeftShoulder 14.318683 -26.098908 37.621094
LeftArm 87.161904 15.706079 -79.314156
LeftForeArm -18.951107 0.000000 62.448139
LeftHand -25.581433 0.000000 13.872742
LeftHandThumb1 -26.253704 0.000000 33.147579
RightShoulder 9.461656 37.317139 -24.395837
RightArm 34.639061 -20.793572 99.819193
RightForeArm 20.089384 -0.000000 80.558815
RightHand 3.269501 -0.000000 6.051161
RightHandThumb1 -24.326973 -0.000000 -32.862282
LeftUpLeg -2.022977 7.543982 1.714522
LeftLeg -0.237117 -0.000000 0.000000
LeftFoot -7.917547 2.259123 -9.695889
LeftToeBase 10.257089 -0.000000 -0.000000
RightUpLeg -3.037258 -6.609330 0.392440
RightLeg 1.735120 -0.000000 -0.000000
RightFoot -5.416534 -0.793308 0.346029
RightToeBase -0.598378 -0.000000 0.000000
1390
root -0.728379 33.162669 -3.884159 5.769971 2.458703 -1.513601
Spine -6.033946 2.549613 4.925290
Head -34.503311 -0.372975 2.008070
LeftShoulder 14.758620 -26.504554 37.488887
LeftArm 87.655825 16.166432 -78.186494
LeftForeArm -18.342875 -0.000000 62.039207
LeftHand -25.717350 -0.000000 13.937521
LeftHandThumb1 -26.253704 0.000000 33.147579
RightShoulder 9.900061 37.998402 -24.267320
RightArm 34.758721 -20.677440 100.388089
RightForeArm 20.501572 -0.000000 81.600980
RightHand 3.546387 -0.000000 6.691378
RightHandThumb1 -24.326973 -0.000000 -32.862282
LeftUpLeg -2.071156 7.510410 1.746086
LeftLeg -0.278702 -0.000000 0.000000
LeftFoot -7.852730 2.169793 -9.742277
LeftToeBase 10.203563 -0.000000 -0.000000
RightUpLeg -3.075251 -6.690783 0.438229
RightLeg 1.740302 -0.000000 -0.000000
RightFoot -5.430489 -0.817177 0.416970
RightToeBase -0.505994 -0.000000 0.000000
1391
root -0.730979 33.164102 -3.882527 5.807085 2.595866 -1.541431
Spine -5.944244 2.416931 4.991425
Head -34.727310 -0.149981 1.943238
LeftShoulder 15.060153 -26.942915 37.358291
LeftArm 88.033827 16.632030 -77.045779
LeftForeArm -17.629638 -0.000000 61.718186
LeftHand -25.628613 -0.000000 13.727842
LeftHandThumb1 -26.253704 0.000000 33.147579
RightShoulder 10.228170 38.571903 -24.318026
RightArm 35.001170 -20.574278 100.959980
RightForeArm 20.808385 -0.000000 82.630347
RightHand 3.778835 0.000000 7.328269
RightHandThumb1 -24.326973 -0.000000 -32.862282
LeftUpLeg -2.108739 7.467601 1.779011
LeftLeg -0.314905 -0.000000 0.000000
LeftFoot -7.829669 2.109562 -9.713896
LeftToeBase 10.274802 -0.000000 -0.000000
RightUpLeg -3.088747 -6.765890 0.483159
RightLeg 1.717787 -0.000000 -0.000000
RightFoot -5.395293 -0.866685 0.431330
RightToeBase -0.498634 -0.000000 0.000000
